<svg xmlns="http://www.w3.org/2000/svg" viewBox="0 0 820 98" width="820" height="98"><style> .TimelineBlock{fill:rgb(195,130,255);}.TopConduitDuct{fill:#ccc;}.ConduitDuct{fill:#aaa;}.ComponentBlock{fill:rgb(134,146,255);}.ModelBlock{fill:#baffbd;}text{font-family:sans-serif;font-size:16px;}.model{rx:1;fill:#eee;stroke:#000;stroke-width:2;}.component{rx:5;fill:#fff;stroke:#000;stroke-width:2;}.ComponentBlock_group text{text-anchor:middle;dominant-baseline:middle;}#port-f_init,#port-o_f,#port-o_i,#port-s{stroke:black;stroke-width:2;}#port-f_init,#port-s{fill:white;}#port-o_f,#port-o_i{fill:black;}.conduit{fill:none;stroke:#000;stroke-linecap:square;stroke-width:2;}</style><defs><path id="port-f_init" d="M 1 0 L 4 -3 L 7 0 L 4 3 Z "/><path id="port-o_f" d="M -1 0 L -4 -3 L -7 0 L -4 3 Z "/><circle id="port-o_i" cy="-3.5" r="2.5"/><circle id="port-s" cy="-3.5" r="2.5"/></defs><g class="ModelBlock_group"><rect class="model" id="model-metis_nice_inverse_from_dina" x="11.0" y="11.0" width="798" height="76"><title>Model: metis_nice_inverse_from_dina</title></rect><g transform="translate(20 20)" class="TimelineBlock_group"><g class="ConduitDuct_group"/><g class="ComponentBlock_group"><rect class="component" id="component-source_metis" x="8.0" y="9.0" width="116" height="48"/><text x="66.0" y="33.0">source_metis</text><use href="#port-o_f" x="132" y="23.0"><title>pulse_schedule_out</title></use><use href="#port-o_f" x="132" y="33.0"><title>core_profiles_out</title></use><use href="#port-o_f" x="132" y="43.0"><title>core_sources_out</title></use></g><g class="ConduitDuct_group"/><g class="ComponentBlock_group"><rect class="component" id="component-metis" x="152.0" y="9.0" width="98" height="48"/><text x="201.0" y="33.0">metis</text><use href="#port-f_init" x="144" y="18.0"><title>pulse_schedule_in_f</title></use><use href="#port-f_init" x="144" y="28.0"><title>pulse_schedule_f_init</title></use><use href="#port-f_init" x="144" y="38.0"><title>core_profiles_in_f</title></use><use href="#port-f_init" x="144" y="48.0"><title>core_sources_in_f</title></use><use href="#port-o_f" x="258" y="13.0"><title>equilibrium_out_f</title></use><use href="#port-o_f" x="258" y="23.0"><title>pulse_schedule_out_f</title></use><use href="#port-o_f" x="258" y="33.0"><title>plasma_profiles_out_f</title></use><use href="#port-o_f" x="258" y="43.0"><title>plasma_sources_out_f</title></use><use href="#port-o_f" x="258" y="53.0"><title>summary_out_f</title></use></g><g class="ConduitDuct_group"/><g class="ComponentBlock_group"><rect class="component" id="component-sink_metis" x="290.0" y="9.0" width="98" height="48"/><text x="339.0" y="33.0">sink_metis</text><use href="#port-f_init" x="282" y="13.0"><title>equilibrium_in</title></use><use href="#port-f_init" x="282" y="23.0"><title>pulse_schedule_in</title></use><use href="#port-f_init" x="282" y="33.0"><title>plasma_profiles_in</title></use><use href="#port-f_init" x="282" y="43.0"><title>plasma_sources_in</title></use><use href="#port-f_init" x="282" y="53.0"><title>summary_in</title></use></g><g class="ConduitDuct_group"/><g class="ComponentBlock_group"><rect class="component" id="component-source_nice" x="408.0" y="9.0" width="108" height="48"/><text x="462.0" y="33.0">source_nice</text><use href="#port-f_init" x="400" y="33.0"><title>equilibrium_in</title></use><use href="#port-o_f" x="524" y="18.0"><title>wall_out</title></use><use href="#port-o_f" x="524" y="28.0"><title>pf_active_out</title></use><use href="#port-o_f" x="524" y="38.0"><title>pf_passive_out</title></use><use href="#port-o_f" x="524" y="48.0"><title>iron_core_out</title></use></g><g class="ConduitDuct_group"/><g class="ComponentBlock_group"><rect class="component" id="component-nice" x="552.0" y="9.0" width="98" height="48"/><text x="601.0" y="33.0">nice</text><use href="#port-f_init" x="544" y="13.0"><title>equilibrium_in</title></use><use href="#port-f_init" x="544" y="23.0"><title>wall_in</title></use><use href="#port-f_init" x="544" y="33.0"><title>pf_active_in</title></use><use href="#port-f_init" x="544" y="43.0"><title>pf_passive_in</title></use><use href="#port-f_init" x="544" y="53.0"><title>iron_core_in</title></use><use href="#port-o_f" x="658" y="28.0"><title>equilibrium_out</title></use><use href="#port-o_f" x="658" y="38.0"><title>pf_active_out</title></use></g><g class="ConduitDuct_group"/><g class="ComponentBlock_group"><rect class="component" id="component-sink_nice" x="674.0" y="9.0" width="98" height="48"/><text x="723.0" y="33.0">sink_nice</text><use href="#port-f_init" x="666" y="28.0"><title>equilibrium_in</title></use><use href="#port-f_init" x="666" y="38.0"><title>pf_active_in</title></use></g><g class="ConduitDuct_group"/><g class="TopConduitDuct_group"><path class="conduit" d="M 132 23.0 H 134.0 V 28.0 H 144"/><path class="conduit" d="M 132 23.0 H 134.0 V 18.0 H 144"/><path class="conduit" d="M 132 33.0 H 138.0 V 38.0 H 144"/><path class="conduit" d="M 132 43.0 H 142.0 V 48.0 H 144"/><path class="conduit" d="M 258 13.0 H 264.0 V 13.0 H 282"/><path class="conduit" d="M 258 13.0 H 260.0 V 2.0 H 542.0 V 13.0 H 544"/><path class="conduit" d="M 258 13.0 H 260.0 V 2.0 H 398.0 V 33.0 H 400"/><path class="conduit" d="M 258 23.0 H 268.0 V 23.0 H 282"/><path class="conduit" d="M 258 33.0 H 272.0 V 33.0 H 282"/><path class="conduit" d="M 258 43.0 H 276.0 V 43.0 H 282"/><path class="conduit" d="M 258 53.0 H 280.0 V 53.0 H 282"/><path class="conduit" d="M 524 18.0 H 526.0 V 23.0 H 544"/><path class="conduit" d="M 524 28.0 H 530.0 V 33.0 H 544"/><path class="conduit" d="M 524 38.0 H 534.0 V 43.0 H 544"/><path class="conduit" d="M 524 48.0 H 538.0 V 53.0 H 544"/><path class="conduit" d="M 658 28.0 H 660.0 V 28.0 H 666"/><path class="conduit" d="M 658 38.0 H 664.0 V 38.0 H 666"/></g></g></g></svg>
